<svg xmlns="http://www.w3.org/2000/svg" width="3000" height="1500" viewBox="0 0 1500 750" role="img" aria-labelledby="title desc" preserveAspectRatio="xMidYMid meet" text-rendering="geometricPrecision" shape-rendering="geometricPrecision">
  <title id="title">Learning Service architecture overview</title>
  <desc id="desc">Learning gRPC content and user state flows into PostgreSQL learning schema</desc>
  <defs>
    <marker id="goldArrow" markerWidth="16" markerHeight="16" refX="12" refY="8" orient="auto" markerUnits="userSpaceOnUse"><path d="M0 0 L16 8 L0 16 Z" fill="#f6c84c"/></marker>
    <marker id="blueArrow" markerWidth="16" markerHeight="16" refX="12" refY="8" orient="auto" markerUnits="userSpaceOnUse"><path d="M0 0 L16 8 L0 16 Z" fill="#55a7ff"/></marker>
    <marker id="violetArrow" markerWidth="16" markerHeight="16" refX="12" refY="8" orient="auto" markerUnits="userSpaceOnUse"><path d="M0 0 L16 8 L0 16 Z" fill="#b48cff"/></marker>
    <style>
      .bg{fill:#071521}.grid{stroke:#1a3448;stroke-width:1;opacity:.32}.title{font:800 38px Inter,Arial,sans-serif;fill:#fff}.sub{font:700 15px Inter,Arial,sans-serif;fill:#9fb4c8;letter-spacing:.14em}.box{fill:#112538;stroke:#6d8195;stroke-width:1.7}.grpc{fill:#3a3008;stroke:#f6c84c;stroke-width:2.4}.content{fill:#0d3b31;stroke:#2dd4a3;stroke-width:2.2}.state{fill:#2d1c4f;stroke:#b48cff;stroke-width:2.2}.db{fill:#102f4d;stroke:#55a7ff;stroke-width:2.2}.future{fill:#1a2431;stroke:#7f95a7;stroke-width:1.8;stroke-dasharray:8 8}.txt{font:800 22px Inter,Arial,sans-serif;fill:#f8fbff}.body{font:600 15px Inter,Arial,sans-serif;fill:#c9d6e3}.small{font:700 12px Inter,Arial,sans-serif;fill:#aebfd0}.lineGold{stroke:#f6c84c;stroke-width:3;fill:none;marker-end:url(#goldArrow)}.lineBlue{stroke:#55a7ff;stroke-width:3;fill:none;marker-end:url(#blueArrow)}.lineViolet{stroke:#b48cff;stroke-width:3;fill:none;marker-end:url(#violetArrow)}.dash{stroke-dasharray:8 8}
    </style>
  </defs>
  <rect class="bg" width="1500" height="750" rx="34"/>
  <path class="grid" d="M75 0V750 M150 0V750 M225 0V750 M300 0V750 M375 0V750 M450 0V750 M525 0V750 M600 0V750 M675 0V750 M750 0V750 M825 0V750 M900 0V750 M975 0V750 M1050 0V750 M1125 0V750 M1200 0V750 M1275 0V750 M1350 0V750 M1425 0V750 M0 90H1500 M0 180H1500 M0 270H1500 M0 360H1500 M0 450H1500 M0 540H1500 M0 630H1500"/>
  <text x="64" y="92" class="title">LEARNING SERVICE</text>
  <text x="66" y="128" class="sub">CONTENT CRUD · USER PROGRESS · FAVORITES · STATS</text>

  <rect x="70" y="240" width="250" height="135" rx="26" class="box"/>
  <text x="105" y="292" class="txt">CLIENT / BFF</text>
  <text x="105" y="328" class="body">content · progress · stats</text>

  <rect x="415" y="190" width="320" height="230" rx="30" class="grpc"/>
  <text x="455" y="242" class="txt">LearningGrpcService</text>
  <text x="455" y="280" class="body">Create / Update / Delete</text>
  <text x="455" y="312" class="body">List / Search / Recommend</text>
  <text x="455" y="344" class="body">Progress / Complete / Favorite</text>

  <rect x="860" y="150" width="290" height="160" rx="26" class="content"/>
  <text x="900" y="202" class="txt">ContentService</text>
  <text x="900" y="238" class="body">contents CRUD</text>
  <text x="900" y="268" class="body">search · read_count</text>

  <rect x="860" y="390" width="290" height="165" rx="26" class="state"/>
  <text x="900" y="442" class="txt">UserContentStateService</text>
  <text x="900" y="478" class="body">progress · complete</text>
  <text x="900" y="508" class="body">favorite · stats</text>

  <rect x="1235" y="180" width="230" height="330" rx="30" class="db"/>
  <text x="1270" y="232" class="txt">POSTGRES</text>
  <text x="1270" y="270" class="body">learning.contents</text>
  <text x="1270" y="302" class="body">user_content_states</text>
  <text x="1270" y="334" class="body">unique user+content</text>
  <text x="1270" y="366" class="body">progress check 0..100</text>

  <rect x="415" y="535" width="735" height="100" rx="24" class="future"/>
  <text x="455" y="578" class="txt">FUTURE CONTRACT</text>
  <text x="455" y="612" class="body">CommandMetadata · idempotency_records · LearningCompleted Outbox are not implemented yet</text>

  <path d="M320 308H400" class="lineGold"/>
  <path d="M735 260H845" class="lineGold"/>
  <path d="M735 350H800 V472 H845" class="lineViolet"/>
  <path d="M1150 230H1220" class="lineBlue"/>
  <path d="M1150 472H1190 V345 H1220" class="lineBlue"/>
  <path d="M783 535V440" class="lineViolet dash"/>
  <text x="70" y="690" class="small">Current implementation owns learning schema only · no service DB cross-read · event/idempotency are future contract points</text>
</svg>
