<svg xmlns="http://www.w3.org/2000/svg" width="1280" height="760" viewBox="0 0 1280 760">
  <defs>
    <style>
      .bg { fill: #f8fafc; }
      .band { fill: #eef2f7; }
      .title { font: 700 30px Arial, sans-serif; fill: #0f172a; }
      .label { font: 700 18px Arial, sans-serif; fill: #0f172a; }
      .boxTitle { font: 700 16px Arial, sans-serif; fill: #0f172a; }
      .small { font: 14px Arial, sans-serif; fill: #334155; }
      .tiny { font: 12px Arial, sans-serif; fill: #475569; }
      .box { fill: #ffffff; stroke: #94a3b8; stroke-width: 2; rx: 8; }
      .service { fill: #e0f2fe; stroke: #0284c7; }
      .db { fill: #ecfdf5; stroke: #059669; }
      .external { fill: #fff7ed; stroke: #ea580c; }
      .event { fill: #fef2f2; stroke: #dc2626; }
      .arrow { stroke: #334155; stroke-width: 2; fill: none; marker-end: url(#arrow); stroke-linecap: round; stroke-linejoin: round; }
      .dashed { stroke-dasharray: 7 6; }
    </style>
    <marker id="arrow" markerWidth="10" markerHeight="10" refX="8" refY="3" orient="auto">
      <path d="M0,0 L0,6 L9,3 z" fill="#334155" />
    </marker>
  </defs>

  <rect class="bg" x="0" y="0" width="1280" height="760" />
  <text class="title" x="48" y="58">Portfolio Service Structure and Runtime Flow</text>

  <rect class="band" x="40" y="90" width="1200" height="190" rx="8" />
  <text class="label" x="60" y="125">1. Holding read model update</text>

  <rect class="box external" x="70" y="155" width="190" height="82" />
  <text class="boxTitle" x="165" y="188" text-anchor="middle">trading-service</text>
  <text class="small" x="165" y="214" text-anchor="middle">OrderFilled event</text>

  <rect class="box event" x="315" y="155" width="190" height="82" />
  <text class="boxTitle" x="410" y="188" text-anchor="middle">Kafka</text>
  <text class="small" x="410" y="214" text-anchor="middle">trading.order-filled.v1</text>

  <rect class="box service" x="560" y="145" width="215" height="102" />
  <text class="boxTitle" x="667.5" y="180" text-anchor="middle">TradingEventConsumer</text>
  <text class="small" x="667.5" y="207" text-anchor="middle">parse payload</text>
  <text class="small" x="667.5" y="229" text-anchor="middle">dedup by orderId</text>

  <rect class="box service" x="830" y="145" width="190" height="102" />
  <text class="boxTitle" x="925" y="180" text-anchor="middle">HoldingService</text>
  <text class="small" x="925" y="207" text-anchor="middle">applyBuyFill</text>
  <text class="small" x="925" y="229" text-anchor="middle">applySellFill</text>

  <rect class="box db" x="1060" y="125" width="145" height="142" />
  <text class="boxTitle" x="1132.5" y="160" text-anchor="middle">portfolio DB</text>
  <text class="small" x="1132.5" y="190" text-anchor="middle">holdings</text>
  <text class="small" x="1132.5" y="214" text-anchor="middle">realized_trades</text>
  <text class="small" x="1132.5" y="238" text-anchor="middle">consumed_events</text>

  <path class="arrow" d="M260 196 H315" />
  <path class="arrow" d="M505 196 H560" />
  <path class="arrow" d="M775 196 H830" />
  <path class="arrow" d="M1020 196 H1060" />

  <rect class="band" x="40" y="315" width="1200" height="210" rx="8" />
  <text class="label" x="60" y="350">2. Portfolio query path</text>

  <rect class="box external" x="70" y="385" width="170" height="82" />
  <text class="boxTitle" x="155" y="418" text-anchor="middle">BFF</text>
  <text class="small" x="155" y="444" text-anchor="middle">gRPC request</text>

  <rect class="box service" x="295" y="365" width="215" height="122" />
  <text class="boxTitle" x="402.5" y="400" text-anchor="middle">PortfolioGrpcService</text>
  <text class="small" x="402.5" y="427" text-anchor="middle">mapping only</text>
  <text class="small" x="402.5" y="449" text-anchor="middle">validation</text>
  <text class="small" x="402.5" y="471" text-anchor="middle">service call</text>

  <rect class="box service" x="565" y="365" width="225" height="122" />
  <text class="boxTitle" x="677.5" y="400" text-anchor="middle">AnalyticsService</text>
  <text class="small" x="677.5" y="427" text-anchor="middle">summary</text>
  <text class="small" x="677.5" y="449" text-anchor="middle">history</text>
  <text class="small" x="677.5" y="471" text-anchor="middle">sector / stats</text>

  <rect class="box db" x="845" y="360" width="155" height="132" />
  <text class="boxTitle" x="922.5" y="395" text-anchor="middle">portfolio DB</text>
  <text class="small" x="922.5" y="422" text-anchor="middle">holdings</text>
  <text class="small" x="922.5" y="446" text-anchor="middle">snapshots</text>
  <text class="small" x="922.5" y="470" text-anchor="middle">trades</text>

  <rect class="box external" x="1055" y="330" width="145" height="72" />
  <text class="boxTitle" x="1127.5" y="362" text-anchor="middle">market-service</text>
  <text class="small" x="1127.5" y="386" text-anchor="middle">BatchQuotes</text>

  <rect class="box external" x="1055" y="435" width="145" height="72" />
  <text class="boxTitle" x="1127.5" y="467" text-anchor="middle">trading-service</text>
  <text class="small" x="1127.5" y="491" text-anchor="middle">GetBalance</text>

  <path class="arrow" d="M240 426 H295" />
  <path class="arrow" d="M510 426 H565" />
  <path class="arrow" d="M790 426 H845" />
  
  <path class="arrow dashed" d="M790 426 C815 418 815 315 850 315 H1025 V366 H1055" />
  <path class="arrow dashed" d="M790 426 C815 434 815 525 850 525 H1025 V471 H1055" />

  <rect class="band" x="40" y="560" width="1200" height="150" rx="8" />
  <text class="label" x="60" y="595">3. EOD snapshot path</text>

  <rect class="box external" x="70" y="625" width="170" height="58" />
  <text class="boxTitle" x="155" y="660" text-anchor="middle">batch service</text>

  <rect class="box service" x="310" y="610" width="225" height="88" />
  <text class="boxTitle" x="422.5" y="642" text-anchor="middle">PortfolioGrpcService</text>
  <text class="small" x="422.5" y="668" text-anchor="middle">RecordDailySnapshot</text>

  <rect class="box service" x="605" y="610" width="230" height="88" />
  <text class="boxTitle" x="720" y="642" text-anchor="middle">SnapshotService</text>
  <text class="small" x="720" y="668" text-anchor="middle">unique by user/date</text>

  <rect class="box db" x="910" y="610" width="210" height="88" />
  <text class="boxTitle" x="1015" y="649" text-anchor="middle">portfolio_snapshots</text>
  <text class="small" x="1015" y="675" text-anchor="middle">daily asset history</text>

  <path class="arrow" d="M240 654 H310" />
  <path class="arrow" d="M535 654 H605" />
  <path class="arrow" d="M835 654 H910" />
</svg>