<svg xmlns="http://www.w3.org/2000/svg" width="1800" height="1220" viewBox="0 0 1800 1220">
  <defs><linearGradient id="bg" x1="0" y1="0" x2="1" y2="1"><stop stop-color="#080F1D"/><stop offset="1" stop-color="#171329"/></linearGradient><marker id="a" markerUnits="userSpaceOnUse" markerWidth="16" markerHeight="16" refX="16" refY="8" orient="auto"><path d="M0 0L16 8L0 16Z" fill="#F4C95D"/></marker><marker id="r" markerUnits="userSpaceOnUse" markerWidth="16" markerHeight="16" refX="16" refY="8" orient="auto"><path d="M0 0L16 8L0 16Z" fill="#91A4B7"/></marker><style>.t{font:750 36px Inter,Arial;fill:#F8FAFC}.s{font:500 17px Inter,Arial;fill:#A89BB9}.h{font:700 15px Inter,Arial;fill:#F8FAFC}.x{font:600 13px Inter,Arial;fill:#C8BDD7}.n{font:500 13px Inter,Arial;fill:#A89BB9}.lane{stroke:#3D4659;stroke-width:2;stroke-dasharray:7 8}.call{stroke:#F4C95D;stroke-width:2.4;marker-end:url(#a)}.ret{stroke:#91A4B7;stroke-width:2;stroke-dasharray:7 6;marker-end:url(#r)}</style></defs>
  <rect width="1800" height="1220" rx="34" fill="url(#bg)"/><text x="70" y="70" class="t">FINALIZE DAILY RANKING · ATOMIC COMMAND</text><text x="70" y="102" class="s">Portfolio 전체 페이지 조회부터 Ranking·Outbox·성공 응답 저장까지 하나의 멱등 명령으로 확정합니다.</text>
  <g transform="translate(55 150)"><g text-anchor="middle"><rect width="220" height="66" rx="17" fill="#3A2F0B" stroke="#F4C95D" stroke-width="2"/><text x="110" y="40" class="h">BATCH</text><rect x="275" width="240" height="66" rx="17" fill="#2D1B4E" stroke="#B794F4" stroke-width="2"/><text x="395" y="40" class="h">gRPC SERVICE</text><rect x="570" width="250" height="66" rx="17" fill="#2D1B4E" stroke="#B794F4" stroke-width="2"/><text x="695" y="40" class="h">IDEMPOTENCY</text><rect x="875" width="250" height="66" rx="17" fill="#2D1B4E" stroke="#B794F4" stroke-width="2"/><text x="1000" y="40" class="h">DAILY SERVICE</text><rect x="1180" width="230" height="66" rx="17" fill="#102A43" stroke="#4DA3FF" stroke-width="2"/><text x="1295" y="40" class="h">PORTFOLIO</text><rect x="1465" width="240" height="66" rx="17" fill="#263442" stroke="#94A3B8" stroke-width="2"/><text x="1585" y="40" class="h">RANKING DB</text></g>
    <path d="M110 66V930M395 66V930M695 66V930M1000 66V930M1295 66V930M1585 66V930" class="lane"/>
    <path d="M115 130H385" class="call"/><text x="250" y="119" text-anchor="middle" class="h">FinalizeDailyRanking(date, key)</text><text x="250" y="148" text-anchor="middle" class="n">x-user-id · metadata key = request key</text>
    <path d="M400 195H685" class="call"/><text x="543" y="184" text-anchor="middle" class="h">execute(request, command)</text><path d="M700 255H990" class="call"/><text x="845" y="244" text-anchor="middle" class="h">finalizeDailyRanking(date)</text>
    <path d="M1005 320H1285" class="call"/><text x="1145" y="309" text-anchor="middle" class="h">ListDailyPortfolioSnapshots(page 500)</text><path d="M1285 355H1005" class="ret"/><text x="1145" y="346" text-anchor="middle" class="x">user · total_asset · return_rate · next token</text><text x="1000" y="392" text-anchor="middle" class="n">cursor 끝까지 반복 · duplicate/token loop 검증</text>
    <path d="M1005 450H1575" class="call"/><text x="1290" y="439" text-anchor="middle" class="h">findParticipants()</text><path d="M1575 485H1005" class="ret"/><text x="1290" y="476" text-anchor="middle" class="x">trade_count · user/account status</text>
    <rect x="875" y="530" width="250" height="124" rx="18" fill="#211735" stroke="#72519C"/><text x="1000" y="563" text-anchor="middle" class="h">FILTER &amp; SORT</text><text x="1000" y="590" text-anchor="middle" class="x">5+ · ACTIVE · snapshot</text><text x="1000" y="616" text-anchor="middle" class="x">rate ↓ · trades ↓ · user ↑</text><text x="1000" y="640" text-anchor="middle" class="n">position 1..N</text>
    <path d="M1005 700H1575" class="call"/><text x="1290" y="689" text-anchor="middle" class="h">replaceDailyRanking(date, rows)</text><text x="1290" y="719" text-anchor="middle" class="n">snapshot + history + runs</text>
    <path d="M700 780H1575" class="call"/><text x="1138" y="769" text-anchor="middle" class="h">save Outbox + idempotency response</text><text x="1138" y="799" text-anchor="middle" class="n">same DB transaction · failure rolls back all</text>
    <path d="M1575 850H705" class="ret"/><text x="1140" y="841" text-anchor="middle" class="x">COMMIT</text><path d="M685 895H405" class="ret"/><text x="545" y="886" text-anchor="middle" class="x">stored or replayed response</text><path d="M385 940H115" class="ret"/><text x="250" y="931" text-anchor="middle" class="h">ranking_date · ranked_user_count</text>
  </g>
  <rect x="70" y="1100" width="1660" height="70" rx="18" fill="#171D2B" stroke="#49566A"/><text x="100" y="1131" class="h">AFTER COMMIT</text><text x="100" y="1155" class="x">Outbox publisher · every 5s · max 100 → ranking.daily-finalized.v1 → published_at → latest-date cache refresh</text>
</svg>
