<svg xmlns="http://www.w3.org/2000/svg" width="1800" height="900" viewBox="0 0 1800 900">
  <defs><linearGradient id="bg3" x1="0" y1="0" x2="1" y2="1"><stop stop-color="#071521"/><stop offset="1" stop-color="#082A25"/></linearGradient><marker id="a3" markerWidth="10" markerHeight="10" refX="8" refY="3" orient="auto"><path d="M0 0L0 6L9 3z" fill="#F4C95D"/></marker><marker id="r3" markerWidth="10" markerHeight="10" refX="8" refY="3" orient="auto"><path d="M0 0L0 6L9 3z" fill="#91A4B7"/></marker><style>.t{font:700 38px Inter,Arial;fill:#F8FAFC}.s{font:500 17px Inter,Arial;fill:#91A4B7}.h{font:700 17px Inter,Arial;fill:#F8FAFC}.x{font:600 14px Inter,Arial;fill:#D5E2EC}.lane{stroke:#35544F;stroke-width:2;stroke-dasharray:7 8}.call{stroke:#F4C95D;stroke-width:2.5;marker-end:url(#a3)}.ret{stroke:#91A4B7;stroke-width:2;stroke-dasharray:7 6;marker-end:url(#r3)}</style></defs>
  <rect width="1800" height="900" rx="34" fill="url(#bg3)"/><text x="72" y="70" class="t">STOCK MASTER SYNC · TWO-MARKET PIPELINE</text><text x="72" y="103" class="s">Batch는 시장과 순서만 지정합니다. 키움 통신과 stocks upsert는 Stock Service의 책임입니다.</text>
  <g transform="translate(80 150)">
    <g font-family="Inter,Arial" font-size="18" font-weight="700" text-anchor="middle"><rect width="290" height="70" rx="18" fill="#3A2F0B" stroke="#F4C95D" stroke-width="2"/><text x="145" y="43" fill="#FFF9DB">CANDLE BATCH</text><rect x="500" width="290" height="70" rx="18" fill="#073B32" stroke="#22C997" stroke-width="2"/><text x="645" y="43" fill="#ECFFF8">STOCK SERVICE :50060</text><rect x="1000" width="270" height="70" rx="18" fill="#17212B" stroke="#7C8B9A" stroke-width="2"/><text x="1135" y="43" fill="#EAF2F8">KIWOOM OPENAPI</text><rect x="1430" width="250" height="70" rx="18" fill="#263442" stroke="#94A3B8" stroke-width="2"/><text x="1555" y="34" fill="#F8FAFC">candle_stock</text><text x="1555" y="54" fill="#AFC0CF" font-size="14">stocks table</text></g>
    <path d="M145 70V620M645 70V620M1135 70V620M1555 70V620" class="lane"/>
    <rect x="20" y="115" width="118" height="34" rx="17" fill="#164E43" stroke="#22C997"/><text x="79" y="137" text-anchor="middle" class="x" fill="#ECFFF8">1 · KOSPI</text><path d="M150 175H635" class="call"/><text x="392" y="164" text-anchor="middle" class="h">SyncStocks(KOSPI)</text><path d="M655 215H1125" class="call"/><text x="890" y="204" text-anchor="middle" class="h">목록 연속 조회</text><path d="M1125 250H655" class="ret"/><text x="890" y="241" text-anchor="middle" class="x">종목 코드 · 이름 · 시장 정보</text><path d="M655 290H1545" class="call"/><text x="1100" y="279" text-anchor="middle" class="h">idempotent upsert</text><path d="M635 330H150" class="ret"/><text x="392" y="321" text-anchor="middle" class="x">upserted · total</text>
    <rect x="20" y="385" width="132" height="34" rx="17" fill="#164E43" stroke="#22C997"/><text x="86" y="407" text-anchor="middle" class="x" fill="#ECFFF8">2 · KOSDAQ</text><path d="M150 445H635" class="call"/><text x="392" y="434" text-anchor="middle" class="h">SyncStocks(KOSDAQ)</text><path d="M655 485H1125" class="call"/><text x="890" y="474" text-anchor="middle" class="h">목록 연속 조회</text><path d="M1125 520H655" class="ret"/><text x="890" y="511" text-anchor="middle" class="x">종목 코드 · 이름 · 시장 정보</text><path d="M655 560H1545" class="call"/><text x="1100" y="549" text-anchor="middle" class="h">idempotent upsert</text><path d="M635 600H150" class="ret"/><text x="392" y="591" text-anchor="middle" class="x">upserted · total</text>
  </g>
  <rect x="80" y="815" width="1640" height="1" fill="#35544F"/><circle cx="100" cy="850" r="7" fill="#22C997"/><text x="122" y="856" class="s">운영 확인: credentials configured · upserted/total &gt; 0 · stocks.synced_at 갱신</text><text x="1220" y="856" class="s">retryable gRPC failure · max 3</text>
</svg>
